<svg width="48" height="20" viewBox="0 0 48 20" fill="none" xmlns="http://www.w3.org/2000/svg">
<path d="M43.5819 4.23999C44.7339 4.23999 45.6459 4.62399 46.3179 5.39199C47.0059 6.14399 47.3499 7.46399 47.3499 9.35199C47.3499 10.76 47.2139 11.912 46.9419 12.808C46.6699 13.688 46.3579 14.272 46.0059 14.56C45.6539 14.848 45.0379 15.08 44.1579 15.256C43.2939 15.432 42.3979 15.52 41.4699 15.52C41.1979 15.52 40.7419 15.504 40.1019 15.472V18.88L35.9979 19.048V4.47999H39.3579L39.7659 6.18399C40.1819 5.59199 40.7099 5.11999 41.3499 4.76799C42.0059 4.41599 42.7499 4.23999 43.5819 4.23999ZM42.6219 12.592C42.7979 12.464 42.9259 12.104 43.0059 11.512C43.0859 10.904 43.1259 10.328 43.1259 9.78399C43.1259 8.88799 43.0139 8.22399 42.7899 7.79199C42.5659 7.35999 42.1179 7.14399 41.4459 7.14399C40.9659 7.14399 40.5179 7.19199 40.1019 7.28799V12.616L40.7739 12.688C40.9819 12.704 41.2779 12.712 41.6619 12.712C42.2059 12.712 42.5259 12.672 42.6219 12.592Z" fill="#FEF2F2"/>
<path d="M30.3194 15.832C28.3994 15.832 26.9594 15.384 25.9994 14.488C25.0554 13.576 24.5834 12.144 24.5834 10.192C24.5834 9.12002 24.6794 8.18402 24.8714 7.38402C25.0794 6.56802 25.3274 6.00002 25.6154 5.68002C25.9834 5.26402 26.6554 4.92002 27.6314 4.64802C28.6234 4.37602 29.5514 4.24002 30.4154 4.24002C32.4794 4.24002 33.9514 4.68002 34.8314 5.56002C35.7114 6.44002 36.1514 7.84802 36.1514 9.78402C36.1514 11.864 35.6794 13.392 34.7354 14.368C33.7914 15.344 32.3194 15.832 30.3194 15.832ZM30.3914 13.024C31.0154 13.024 31.4234 12.808 31.6154 12.376C31.8074 11.928 31.9034 11.144 31.9034 10.024C31.9034 9.24002 31.8634 8.64002 31.7834 8.22402C31.7034 7.79202 31.5514 7.48002 31.3274 7.28802C31.1194 7.08002 30.7914 6.97602 30.3434 6.97602C29.7034 6.97602 29.3354 7.03202 29.2394 7.14402C29.1114 7.25602 29.0074 7.60802 28.9274 8.20002C28.8474 8.79202 28.8074 9.40802 28.8074 10.048C28.8074 11.136 28.9114 11.904 29.1194 12.352C29.3434 12.8 29.7674 13.024 30.3914 13.024Z" fill="#FEF2F2"/>
<path d="M22.3836 5.176C22.5276 5.352 22.6316 5.792 22.6956 6.496C22.7756 7.2 22.8156 8.272 22.8156 9.712V15.52H18.7116V9.76C18.7116 9.696 18.7116 9.384 18.7116 8.824C18.7116 8.248 18.6716 7.896 18.5916 7.768C18.5436 7.704 18.4236 7.656 18.2316 7.624C18.0556 7.592 17.8476 7.576 17.6076 7.576L17.1996 7.6C16.7516 7.616 16.2876 7.72 15.8076 7.912V15.52H11.7036V1.12L15.8076 0.951996V3.76C15.8076 4.912 15.7676 5.68 15.6876 6.064L15.7116 6.088C16.7996 4.856 18.1036 4.24 19.6236 4.24C20.1996 4.24 20.7356 4.32 21.2316 4.48C21.7436 4.64 22.1276 4.872 22.3836 5.176Z" fill="#FEF2F2"/>
<path d="M4.224 5.53599C4.224 5.87199 4.392 6.13599 4.728 6.32799C5.08 6.51999 5.624 6.72799 6.36 6.95199C7.24 7.23999 7.96 7.51999 8.52 7.79199C9.096 8.06399 9.592 8.48799 10.008 9.06399C10.44 9.63999 10.656 10.392 10.656 11.32C10.656 14.296 8.72 15.784 4.848 15.784C4.208 15.784 3.424 15.728 2.496 15.616C1.584 15.504 0.752 15.36 0 15.184C0.032 14.848 0.096 14.36 0.192 13.72C0.304 13.064 0.408 12.576 0.504 12.256C1.064 12.336 1.904 12.432 3.024 12.544C4.16 12.656 5.016 12.712 5.592 12.712C5.928 12.712 6.128 12.688 6.192 12.64C6.288 12.576 6.36 12.472 6.408 12.328C6.472 12.168 6.504 12.032 6.504 11.92C6.504 11.6 6.352 11.36 6.048 11.2C5.744 11.024 5.224 10.816 4.488 10.576C3.608 10.304 2.88 10.024 2.304 9.73599C1.728 9.44799 1.224 8.99999 0.792 8.39199C0.36 7.78399 0.144 6.98399 0.144 5.99199C0.144 5.28799 0.304 4.59999 0.624 3.92799C0.944 3.23999 1.272 2.77599 1.608 2.53599C1.864 2.35999 2.392 2.19199 3.192 2.03199C3.992 1.87199 4.744 1.79199 5.448 1.79199C7.24 1.79199 8.704 1.95999 9.84 2.29599C9.824 2.61599 9.768 3.05599 9.672 3.61599C9.592 4.17599 9.504 4.68799 9.408 5.15199L8.856 5.12799C6.776 4.98399 5.448 4.91199 4.872 4.91199C4.632 4.91199 4.496 4.91999 4.464 4.93599C4.4 4.96799 4.344 5.03999 4.296 5.15199C4.248 5.26399 4.224 5.39199 4.224 5.53599Z" fill="#FEF2F2"/>
</svg>
